<?xml version="1.0" encoding="utf-8"?>
<!-- Generator: Adobe Illustrator 17.0.0, SVG Export Plug-In . SVG Version: 6.00 Build 0)  -->
<!DOCTYPE svg PUBLIC "-//W3C//DTD SVG 1.1//EN" "http://www.w3.org/Graphics/SVG/1.1/DTD/svg11.dtd">
<svg version="1.1" id="图层_1" xmlns="http://www.w3.org/2000/svg" xmlns:xlink="http://www.w3.org/1999/xlink" x="0px" y="0px"
	 width="1024px" height="1024px" viewBox="0 0 1024 1024" enable-background="new 0 0 1024 1024" xml:space="preserve">
<g>
	<path d="M448.817,582.855c-0.848,2.676-2.873,9.323-1.098,15.143c3.492,13.191,14.961,13.729,14.961,13.729h16.507v-39.96h-17.62
		C453.555,574.186,449.783,580.17,448.817,582.855z"/>
	<path d="M415.405,518.05c31.55-6.793,27.261-43.997,26.25-52.207c-1.514-12.614-16.439-34.507-36.722-32.697
		c-25.532,2.097-29.305,38.616-29.305,38.616C372.251,488.671,383.986,524.701,415.405,518.05z"/>
	<path d="M473.897,455.431c17.388,0,31.509-19.841,31.509-44.339c0-24.571-14.121-44.353-31.509-44.353
		c-17.351,0-31.497,19.781-31.497,44.353C442.401,435.59,456.546,455.431,473.897,455.431z"/>
	<path d="M548.87,458.321c23.26,3.067,38.32-21.55,41.213-40.185c2.975-18.618-11.953-40.177-28.462-43.834
		c-16.508-3.86-37.067,22.334-39.043,39.378C520.381,434.51,525.669,455.431,548.87,458.321z"/>
	<path d="M605.803,453.908c-27.673,0-31.428,25.293-31.428,43.22c0,17.158,1.405,40.962,36.013,40.281
		c34.461-0.733,30.695-38.824,30.695-47.793C641.083,480.737,633.663,453.908,605.803,453.908z"/>
	<path d="M605.803,567.85c0,0-35.9-27.512-56.933-57.339c-28.489-43.982-68.984-26.081-82.482-3.707
		c-13.449,22.283-34.477,36.552-37.55,40.27c-3.015,3.663-43.449,25.267-34.442,64.756c8.955,39.484,40.505,38.662,40.505,38.662
		s23.324,2.306,50.168-3.507c27.095-5.966,50.288,1.304,50.288,1.304s63,20.925,80.302-19.3
		C632.884,588.815,605.803,567.85,605.803,567.85z M498.023,627.719h-40.928c-17.723-3.431-24.649-15.35-25.667-17.352
		c-0.841-2.166-5.915-11.77-3.203-28.101c7.625-24.579,29.474-26.25,29.474-26.25h21.838V529.54l18.486,0.226V627.719z
		 M574.375,627.471h-47.16c-18.274-4.597-19.158-17.544-19.158-17.544V558.31l19.158-0.281v46.461
		c1.112,4.894,7.411,5.878,7.411,5.878h19.432V558.31h20.318V627.471z"/>
	<rect x="331.969" y="498.741" width="31.59" height="27.512"/>
	<rect x="331.969" y="538.264" width="31.59" height="108.214"/>
	<path d="M280.607,538.371l-67.404-0.189v22.731h59.129c0,0,14.049,3.372,14.049,12.268v8.013h-53.511
		c0,0-21.078,1.961-27.796,26.72c-1.113,11.73,0.454,17.507,1.181,19.557c0.799,2.199,6.948,15.995,25.349,19.352h85.196v-77.525
		C316.799,569.298,312.641,542.77,280.607,538.371z M286.38,625.421h-43.004c-5.9-2.306-7.799-6.152-8.167-7.136
		c-0.444-0.782-1.694-4.454-0.162-7.71c3.44-6.76,9.173-8.367,9.173-8.367h42.16V625.421z"/>
	<path d="M175.217,573.025c20.183-10.456,17.671-36.798,17.671-36.798c-2.175-40.228-52.023-38.466-52.023-38.466H63.972v150.291
		h86.914c50.977-0.101,47.154-39.587,47.154-39.587C199.141,582.174,175.217,573.025,175.217,573.025z M97.029,527.081h50.078
		c0,0,10.926-0.486,14.464,8.166c0,0,2.16,9.003-1.478,15.253c0,0-3.521,6.293-12.873,7.777H97.029V527.081z M161.571,613.052
		c0,0-3.256,5.679-12.499,7.139H97.029v-32.409h51.825l1.732,0.339c0,0,9.87,1.769,13.379,10.475
		C163.964,598.597,166.092,606.995,161.571,613.052z"/>
	<path d="M741.802,503.236h-26.861v23.736h-57.47v19.365h54.971l-38.106,74.336c-2.499,4.588-6.042,6.461-10.619,5.624h-6.247
		v18.738h8.746c9.155,0,14.99-0.84,17.489-2.499c3.33-0.84,6.247-3.748,8.746-8.746l36.23-68.089l37.479,68.715
		c3.748,7.906,11.245,11.654,22.49,11.245h11.245V625.67h-5.624c-4.998,0.422-8.334-1.454-9.992-5.621l-39.355-73.713h54.971
		v-19.365h-58.093V503.236z"/>
	<polygon points="959.186,508.857 931.076,508.857 931.076,503.859 907.34,503.859 907.34,508.857 883.601,508.857 883.601,528.221 
		959.186,528.221 	"/>
	<path d="M959.813,631.917v-94.95h-18.115v81.206l-12.494-36.853l11.868-41.231h-15.616l-4.998,19.991l-5.621-21.24h-13.744v-2.496
		h-17.492v112.439h59.346C955.438,650.032,961.062,644.411,959.813,631.917z M901.093,545.713l11.245,36.856l-11.245,36.23V545.713z
		 M941.698,628.795c0,2.086-1.045,2.917-3.125,2.499h-37.48v-8.123h13.744l6.247-21.237l6.87,21.863h13.744V628.795z"/>
	<path d="M823.635,627.546c0,2.499-0.626,3.541-1.876,3.122h-3.122v16.242h14.99c8.327,0.409,12.28-4.17,11.871-13.744v-34.358
		h11.242v28.737c0,2.499-0.837,3.541-2.496,3.122h-3.125v16.242h14.367c8.746,0.828,12.904-4.17,12.494-14.993V504.485h-54.345
		V627.546z M845.498,525.722h11.242v19.991h-11.242V525.722z M845.498,562.579h11.242v19.991h-11.242V562.579z"/>
</g>
</svg>
